# xmcd
#
# Track frame offsets:
#	150
#	13131
#	32649
#	45993
#	60389
#	76138
#	90141
#	105408
#	122796
#	134920
#	149600
#	162021
#	175685
#	190024
#	209720
#	223843
#
# Disc length: 3209 seconds
# Revision: 0
# Processed by: cddbd v1.5.2PL0 Copyright (c) Steve Scherf et al.
# Submitted via: dBpowerAMP V12.0
#
DISCID=d80c8710
DTITLE=Abbey Cone - Abbey
DYEAR=2015
DGENRE=Country Fusion
TTITLE0=Southern Charm
TTITLE1=This Ain't Your Heartbreak
TTITLE2=Do Ya
TTITLE3=Shoebox
TTITLE4=Must Have Been The Mirror
TTITLE5=Just Like This
TTITLE6=Mix Tape
TTITLE7=Better Off A Memory
TTITLE8=American Dreams
TTITLE9=Fragile
TTITLE10=Like They Used To Do
TTITLE11=Mr. Heartbreak
TTITLE12=Just Wrong Enough
TTITLE13=When I Find You
TTITLE14=You Are
TTITLE15=Concrete Rose
EXTD=
EXTT0=
EXTT1=
EXTT2=
EXTT3=
EXTT4=
EXTT5=
EXTT6=
EXTT7=
EXTT8=
EXTT9=
EXTT10=
EXTT11=
EXTT12=
EXTT13=
EXTT14=
EXTT15=
PLAYORDER=
